<svg width="26" height="33" viewBox="0 0 26 33" fill="none" xmlns="http://www.w3.org/2000/svg">
<path d="M19.5067 2.87437C19.2568 2.60192 18.9557 2.38141 18.6205 2.22546C18.2853 2.0695 17.9227 1.98116 17.5533 1.96549C17.1839 1.94982 16.8151 2.00712 16.4679 2.13412C16.1207 2.26112 15.8019 2.45532 15.5299 2.70562L15.4174 2.8125C15.4174 2.06658 15.1211 1.35121 14.5936 0.823762C14.0662 0.296316 13.3508 0 12.6049 0C11.8589 0 11.1436 0.296316 10.6161 0.823762C10.0887 1.35121 9.79237 2.06658 9.79237 2.8125L9.67987 2.70562C9.13012 2.20138 8.40259 1.93618 7.65731 1.96835C6.91202 2.00053 6.21005 2.32744 5.70581 2.87719C5.20156 3.42693 4.93636 4.15447 4.96853 4.89975C5.00071 5.64503 5.32762 6.34701 5.87737 6.85125L7.72237 8.49937C7.82925 8.59375 7.96797 8.64401 8.11049 8.64H17.1105C17.2492 8.64118 17.3834 8.5911 17.4874 8.49937L19.3605 6.84563C19.9059 6.33805 20.2276 5.6348 20.2551 4.89025C20.2825 4.1457 20.0133 3.42069 19.5067 2.87437V2.87437Z" fill="url(#paint0_linear_6_1029)"/>
<path d="M16.8292 6.39H8.39175C7.61293 6.39015 6.86315 6.68564 6.29362 7.21687L7.73362 8.49937C7.83762 8.5911 7.97184 8.64118 8.1105 8.64H17.1105C17.2492 8.64118 17.3834 8.5911 17.4874 8.49937L18.9274 7.21687C18.3575 6.68613 17.608 6.39071 16.8292 6.39V6.39Z" fill="#422011"/>
<path d="M16.8292 7.515H8.39174C7.86959 7.515 7.36883 7.72242 6.99962 8.09163C6.63041 8.46084 6.42299 8.9616 6.42299 9.48375C6.42299 10.0059 6.63041 10.5067 6.99962 10.8759C7.36883 11.2451 7.86959 11.4525 8.39174 11.4525H16.8292C17.3514 11.4525 17.8521 11.2451 18.2214 10.8759C18.5906 10.5067 18.798 10.0059 18.798 9.48375C18.798 8.9616 18.5906 8.46084 18.2214 8.09163C17.8521 7.72242 17.3514 7.515 16.8292 7.515Z" fill="url(#paint1_linear_6_1029)"/>
<path d="M24.6311 21.2906L21.5711 13.5337C21.1986 12.5886 20.5504 11.7774 19.7108 11.2056C18.8711 10.6338 17.8789 10.3279 16.863 10.3275H8.358C7.34213 10.3279 6.34987 10.6338 5.51022 11.2056C4.67056 11.7774 4.02236 12.5886 3.64987 13.5337L0.589873 21.2906C0.0845427 22.5701 -0.100272 23.9538 0.0515281 25.321C0.203329 26.6883 0.68714 27.9977 1.46082 29.1352C2.23449 30.2727 3.27457 31.2038 4.49043 31.8473C5.7063 32.4909 7.06108 32.8274 8.43675 32.8275H16.7842C18.1599 32.8274 19.5147 32.4909 20.7306 31.8473C21.9464 31.2038 22.9865 30.2727 23.7602 29.1352C24.5339 27.9977 25.0177 26.6883 25.1695 25.321C25.3213 23.9538 25.1365 22.5701 24.6311 21.2906Z" fill="url(#paint2_linear_6_1029)"/>
<path d="M13.3361 21.015H13.173V18.765H13.3361C13.6345 18.765 13.9206 18.8835 14.1316 19.0945C14.3426 19.3055 14.4611 19.5916 14.4611 19.89H15.5861C15.5861 19.2933 15.3491 18.721 14.9271 18.299C14.5052 17.8771 13.9329 17.64 13.3361 17.64H13.173V16.2731H12.048V17.64H11.8849C11.2881 17.64 10.7158 17.8771 10.2939 18.299C9.87193 18.721 9.63487 19.2933 9.63487 19.89C9.63487 20.4867 9.87193 21.059 10.2939 21.481C10.7158 21.9029 11.2881 22.14 11.8849 22.14H12.048V24.39H11.8849C11.5865 24.39 11.3004 24.2715 11.0894 24.0605C10.8784 23.8495 10.7599 23.5634 10.7599 23.265H9.63487C9.63487 23.8617 9.87193 24.434 10.2939 24.856C10.7158 25.2779 11.2881 25.515 11.8849 25.515H12.048V26.8819H13.173V25.515H13.3361C13.9329 25.515 14.5052 25.2779 14.9271 24.856C15.3491 24.434 15.5861 23.8617 15.5861 23.265C15.5861 22.6683 15.3491 22.096 14.9271 21.674C14.5052 21.2521 13.9329 21.015 13.3361 21.015ZM11.8849 21.015C11.5865 21.015 11.3004 20.8965 11.0894 20.6855C10.8784 20.4745 10.7599 20.1884 10.7599 19.89C10.7599 19.5916 10.8784 19.3055 11.0894 19.0945C11.3004 18.8835 11.5865 18.765 11.8849 18.765H12.048V21.015H11.8849ZM13.3361 24.39H13.173V22.14H13.3361C13.6345 22.14 13.9206 22.2585 14.1316 22.4695C14.3426 22.6805 14.4611 22.9666 14.4611 23.265C14.4611 23.5634 14.3426 23.8495 14.1316 24.0605C13.9206 24.2715 13.6345 24.39 13.3361 24.39Z" fill="url(#paint3_linear_6_1029)"/>
<defs>
<linearGradient id="paint0_linear_6_1029" x1="12.6105" y1="0.2025" x2="12.6105" y2="8.64" gradientUnits="userSpaceOnUse">
<stop stop-color="#AD582D"/>
<stop offset="1" stop-color="#6D3C23"/>
</linearGradient>
<linearGradient id="paint1_linear_6_1029" x1="6.42299" y1="9.48375" x2="18.798" y2="9.48375" gradientUnits="userSpaceOnUse">
<stop stop-color="#FFC033"/>
<stop offset="1" stop-color="#EF8E2E"/>
</linearGradient>
<linearGradient id="paint2_linear_6_1029" x1="807.072" y1="482.827" x2="807.072" y2="1382.83" gradientUnits="userSpaceOnUse">
<stop stop-color="#AD582D"/>
<stop offset="1" stop-color="#6D3C23"/>
</linearGradient>
<linearGradient id="paint3_linear_6_1029" x1="200.075" y1="351.191" x2="200.075" y2="551.272" gradientUnits="userSpaceOnUse">
<stop stop-color="#FFC033"/>
<stop offset="1" stop-color="#EF8E2E"/>
</linearGradient>
</defs>
</svg>
