<svg width="601" height="593" viewBox="0 0 601 593" fill="none" xmlns="http://www.w3.org/2000/svg">
<path d="M274.049 9.69021L214.089 61.9002H300.079V0.000207055C290.799 -0.0297929 281.509 3.20021 274.049 9.69021Z" fill="#FDF0BC"/>
<path d="M325.779 9.63021C318.399 3.24021 309.249 0.0302136 300.089 0.000213623V61.9002H386.079L325.779 9.63021Z" fill="url(#paint0_linear_201_39)"/>
<path d="M90.909 95.2902L78.539 173.83L144.409 118.56L104.619 71.1402C97.489 77.0802 92.449 85.5302 90.909 95.2902Z" fill="#FDF0BC"/>
<path d="M130.499 62.0002C120.739 61.8402 111.659 65.2702 104.629 71.1402L144.419 118.56L210.289 63.2902L130.499 62.0002Z" fill="url(#paint1_linear_201_39)"/>
<path d="M5.649 278.59L46.649 346.71L61.579 262.03L0.629003 251.27C-1.021 260.41 0.549003 270.12 5.649 278.59Z" fill="#FDF0BC"/>
<path d="M14.569 227.64C6.999 233.8 2.249 242.26 0.628998 251.27L61.589 262.02L76.519 177.34L14.569 227.64Z" fill="url(#paint2_linear_201_39)"/>
<path d="M58.149 473.81L133.349 499.63L90.359 425.16L36.749 456.11C41.359 464.17 48.799 470.6 58.149 473.81Z" fill="url(#paint3_linear_201_39)"/>
<path d="M32.239 429.05C30.389 438.63 32.189 448.17 36.739 456.12L90.349 425.17L47.359 350.7L32.239 429.05Z" fill="url(#paint4_linear_201_39)"/>
<path d="M223.849 589.61L298.049 561.06L217.249 531.65L196.079 589.82C204.789 593.02 214.629 593.16 223.849 589.61Z" fill="url(#paint5_linear_201_39)"/>
<path d="M175.229 571.97C179.969 580.5 187.479 586.65 196.079 589.81L217.249 531.64L136.449 502.23L175.229 571.97Z" fill="url(#paint6_linear_201_39)"/>
<path d="M425.229 571.81L463.719 502.24L382.919 531.65L404.089 589.82C412.809 586.67 420.439 580.46 425.229 571.81Z" fill="url(#paint7_linear_201_39)"/>
<path d="M376.639 589.55C385.759 593.04 395.459 592.92 404.079 589.81L382.909 531.64L302.109 561.05L376.639 589.55Z" fill="url(#paint8_linear_201_39)"/>
<path d="M568.039 428.73L552.809 350.7L509.819 425.17L563.429 456.12C568.089 448.09 569.939 438.43 568.039 428.73Z" fill="url(#paint9_linear_201_39)"/>
<path d="M542.229 473.55C551.449 470.36 558.809 464.03 563.419 456.11L509.809 425.16L466.819 499.63L542.229 473.55Z" fill="url(#paint10_linear_201_39)"/>
<path d="M585.469 227.32L523.639 177.34L538.569 262.02L599.529 251.27C597.959 242.13 593.159 233.54 585.469 227.32Z" fill="url(#paint11_linear_201_39)"/>
<path d="M594.509 278.25C599.529 269.88 601.099 260.3 599.529 251.27L538.569 262.02L553.499 346.7L594.509 278.25Z" fill="url(#paint12_linear_201_39)"/>
<path d="M469.369 61.8302L389.879 63.2802L455.749 118.55L495.539 71.1302C488.449 65.1502 479.259 61.6502 469.369 61.8302Z" fill="url(#paint13_linear_201_39)"/>
<path d="M509.029 95.0402C507.489 85.4002 502.539 77.0602 495.539 71.1502L455.749 118.57L521.619 173.84L509.029 95.0402Z" fill="url(#paint14_linear_201_39)"/>
<path d="M300.079 514.08C416.059 514.08 510.079 420.06 510.079 304.08C510.079 188.1 416.059 94.0802 300.079 94.0802C184.099 94.0802 90.079 188.1 90.079 304.08C90.079 420.06 184.099 514.08 300.079 514.08Z" fill="url(#paint15_radial_201_39)"/>
<path d="M300.079 75.3202C173.739 75.3202 71.319 177.73 71.319 304.07C71.319 430.41 173.739 532.83 300.079 532.83C426.419 532.83 528.839 430.41 528.839 304.07C528.839 177.73 426.419 75.3202 300.079 75.3202ZM300.079 514.05C184.109 514.05 90.099 420.04 90.099 304.07C90.099 188.1 184.109 94.0902 300.079 94.0902C416.049 94.0902 510.059 188.1 510.059 304.07C510.059 420.04 416.049 514.05 300.079 514.05Z" fill="url(#paint16_linear_201_39)"/>
<path d="M300.079 46.1302C157.619 46.1302 42.139 161.61 42.139 304.07C42.139 446.53 157.619 562.01 300.079 562.01C442.539 562.01 558.019 446.53 558.019 304.07C558.019 161.61 442.539 46.1302 300.079 46.1302ZM300.079 532.72C173.799 532.72 71.429 430.35 71.429 304.07C71.429 177.79 173.799 75.4302 300.079 75.4302C426.359 75.4302 528.729 177.8 528.729 304.08C528.729 430.36 426.359 532.72 300.079 532.72Z" fill="url(#paint17_linear_201_39)"/>
<defs>
<linearGradient id="paint0_linear_201_39" x1="304.293" y1="30.9502" x2="383.257" y2="30.9502" gradientUnits="userSpaceOnUse">
<stop stop-color="#FEE998"/>
<stop offset="1" stop-color="#FCC15B"/>
</linearGradient>
<linearGradient id="paint1_linear_201_39" x1="128.672" y1="91.3478" x2="207.479" y2="25.2161" gradientUnits="userSpaceOnUse">
<stop stop-color="#FEE998"/>
<stop offset="1" stop-color="#FCC15B"/>
</linearGradient>
<linearGradient id="paint2_linear_201_39" x1="77.9294" y1="177.163" x2="33.4588" y2="250.222" gradientUnits="userSpaceOnUse">
<stop stop-color="#FCC15B"/>
<stop offset="1" stop-color="#FEE998"/>
</linearGradient>
<linearGradient id="paint3_linear_201_39" x1="57.0238" y1="438.902" x2="134.318" y2="489.726" gradientUnits="userSpaceOnUse">
<stop stop-color="#FFC05F"/>
<stop offset="1" stop-color="#ED892B"/>
</linearGradient>
<linearGradient id="paint4_linear_201_39" x1="48.2405" y1="352.321" x2="62.0052" y2="439.145" gradientUnits="userSpaceOnUse">
<stop stop-color="#FCC15B"/>
<stop offset="1" stop-color="#FEE998"/>
</linearGradient>
<linearGradient id="paint5_linear_201_39" x1="210.534" y1="561.771" x2="286.769" y2="578.712" gradientUnits="userSpaceOnUse">
<stop stop-color="#FEAC3E"/>
<stop offset="1" stop-color="#F08223"/>
</linearGradient>
<linearGradient id="paint6_linear_201_39" x1="132.636" y1="501.567" x2="202.518" y2="558.743" gradientUnits="userSpaceOnUse">
<stop stop-color="#FFA135"/>
<stop offset="1" stop-color="#FEB431"/>
</linearGradient>
<linearGradient id="paint7_linear_201_39" x1="464.022" y1="501.743" x2="394.316" y2="561.743" gradientUnits="userSpaceOnUse">
<stop stop-color="#FFAA3D"/>
<stop offset="1" stop-color="#ED8B1C"/>
</linearGradient>
<linearGradient id="paint8_linear_201_39" x1="302.415" y1="566.619" x2="391.356" y2="561.678" gradientUnits="userSpaceOnUse">
<stop stop-color="#FF962D"/>
<stop offset="1" stop-color="#E56005"/>
</linearGradient>
<linearGradient id="paint9_linear_201_39" x1="556.077" y1="351.013" x2="538.195" y2="438.072" gradientUnits="userSpaceOnUse">
<stop stop-color="#FDBD41"/>
<stop offset="1" stop-color="#FEB334"/>
</linearGradient>
<linearGradient id="paint10_linear_201_39" x1="579.509" y1="366.34" x2="493.519" y2="515.273" gradientUnits="userSpaceOnUse">
<stop stop-color="#F6942F"/>
<stop offset="1" stop-color="#EA6F11"/>
</linearGradient>
<linearGradient id="paint11_linear_201_39" x1="519.323" y1="179.844" x2="571.087" y2="256.55" gradientUnits="userSpaceOnUse">
<stop stop-color="#FDBD41"/>
<stop offset="1" stop-color="#FEB334"/>
</linearGradient>
<linearGradient id="paint12_linear_201_39" x1="550.276" y1="346.484" x2="570.512" y2="257.072" gradientUnits="userSpaceOnUse">
<stop stop-color="#FD9D24"/>
<stop offset="1" stop-color="#FF9515"/>
</linearGradient>
<linearGradient id="paint13_linear_201_39" x1="474.647" y1="93.6744" x2="394.646" y2="55.0862" gradientUnits="userSpaceOnUse">
<stop stop-color="#FCC15B"/>
<stop offset="1" stop-color="#FEE998"/>
</linearGradient>
<linearGradient id="paint14_linear_201_39" x1="475.032" y1="88.7745" x2="513.149" y2="173.48" gradientUnits="userSpaceOnUse">
<stop stop-color="#FF9515"/>
<stop offset="1" stop-color="#FFBE41"/>
</linearGradient>
<radialGradient id="paint15_radial_201_39" cx="0" cy="0" r="1" gradientUnits="userSpaceOnUse" gradientTransform="translate(300.08 304.076) scale(210)">
<stop offset="0.8428" stop-color="#FAAA31"/>
<stop offset="1" stop-color="#F57E16"/>
</radialGradient>
<linearGradient id="paint16_linear_201_39" x1="300.081" y1="75.3163" x2="300.081" y2="532.836" gradientUnits="userSpaceOnUse">
<stop offset="0.0226" stop-color="#FD9A18"/>
<stop offset="0.3764" stop-color="#FEC752"/>
<stop offset="1" stop-color="#FFA422"/>
</linearGradient>
<linearGradient id="paint17_linear_201_39" x1="300.081" y1="45.3742" x2="300.081" y2="561.257" gradientUnits="userSpaceOnUse">
<stop stop-color="#FFDB69"/>
<stop offset="0.1799" stop-color="#FEE7B0"/>
<stop offset="0.24" stop-color="#FEE9BA"/>
<stop offset="0.2592" stop-color="#FDECD0"/>
<stop offset="0.2953" stop-color="#FEDA92"/>
<stop offset="0.3254" stop-color="#FFCD64"/>
<stop offset="0.3405" stop-color="#FFC853"/>
<stop offset="0.7613" stop-color="#FF9114"/>
<stop offset="1" stop-color="#F57E16"/>
</linearGradient>
</defs>
</svg>
